# MagicaVoxel @ Ephtracy

# group
g fleur2

# material
mtllib fleur2.mtl
usemtl palette

# normals
vn -1 0 0
vn 1 0 0
vn 0 0 1
vn 0 0 -1
vn 0 -1 0
vn 0 1 0

# texcoords
vt 0.181641 0.5
vt 0.244141 0.5
vt 0.900391 0.5

# verts
v -2 2 0.5
v -2 2 -0.5
v -2 3 0.5
v -2 3 -0.5
v -1 1 0.5
v -1 1 -0.5
v -1 2 0.5
v -1 2 -0.5
v -1 4 0.5
v -1 4 -0.5
v -1 5 0.5
v -1 5 -0.5
v 0 0 0.5
v 0 0 -0.5
v 0 1 0.5
v 0 1 -0.5
v 0 2 0.5
v 0 2 -0.5
v 0 4 1.5
v 0 4 0.5
v 0 4 -0.5
v 0 4 -1.5
v 0 5 1.5
v 0 5 0.5
v 0 5 -0.5
v 0 5 -1.5
v 1 2 1.5
v 1 2 0.5
v 1 3 1.5
v 1 3 0.5
v -1 2 0.5
v -1 2 -0.5
v -1 3 0.5
v -1 3 -0.5
v 1 0 0.5
v 1 0 -0.5
v 1 2 0.5
v 1 3 0.5
v 1 4 1.5
v 1 4 0.5
v 1 4 -0.5
v 1 4 -1.5
v 1 5 1.5
v 1 5 0.5
v 1 5 -0.5
v 1 5 -1.5
v 2 2 1.5
v 2 2 0.5
v 2 3 1.5
v 2 3 0.5
v 2 4 0.5
v 2 4 -0.5
v 2 5 0.5
v 2 5 -0.5
v 0 4 1.5
v 0 5 1.5
v 1 2 1.5
v 1 3 1.5
v 1 4 1.5
v 1 5 1.5
v 2 2 1.5
v 2 3 1.5
v -2 2 0.5
v -2 3 0.5
v -1 1 0.5
v -1 2 0.5
v -1 3 0.5
v -1 4 0.5
v -1 5 0.5
v 0 0 0.5
v 0 1 0.5
v 0 2 0.5
v 0 4 0.5
v 0 5 0.5
v 1 0 0.5
v 1 2 0.5
v 1 3 0.5
v 1 4 0.5
v 1 5 0.5
v 2 4 0.5
v 2 5 0.5
v 1 2 0.5
v 1 3 0.5
v 2 2 0.5
v 2 3 0.5
v -2 2 -0.5
v -2 3 -0.5
v -1 1 -0.5
v -1 2 -0.5
v -1 3 -0.5
v -1 4 -0.5
v -1 5 -0.5
v 0 0 -0.5
v 0 1 -0.5
v 0 2 -0.5
v 0 4 -0.5
v 0 5 -0.5
v 1 0 -0.5
v 1 4 -0.5
v 1 5 -0.5
v 2 4 -0.5
v 2 5 -0.5
v 0 4 -1.5
v 0 5 -1.5
v 1 4 -1.5
v 1 5 -1.5
v 0 0 0.5
v 1 0 0.5
v 0 0 -0.5
v 1 0 -0.5
v -1 1 0.5
v 0 1 0.5
v -1 1 -0.5
v 0 1 -0.5
v 1 2 1.5
v 2 2 1.5
v -2 2 0.5
v -1 2 0.5
v 1 2 0.5
v 2 2 0.5
v -2 2 -0.5
v -1 2 -0.5
v 0 4 1.5
v 1 4 1.5
v -1 4 0.5
v 0 4 0.5
v 1 4 0.5
v 2 4 0.5
v -1 4 -0.5
v 0 4 -0.5
v 1 4 -0.5
v 2 4 -0.5
v 0 4 -1.5
v 1 4 -1.5
v -1 2 0.5
v 0 2 0.5
v -1 2 -0.5
v 0 2 -0.5
v 1 3 1.5
v 2 3 1.5
v -2 3 0.5
v -1 3 0.5
v 1 3 0.5
v 2 3 0.5
v -2 3 -0.5
v -1 3 -0.5
v 0 5 1.5
v 1 5 1.5
v -1 5 0.5
v 0 5 0.5
v 1 5 0.5
v 2 5 0.5
v -1 5 -0.5
v 0 5 -0.5
v 1 5 -0.5
v 2 5 -0.5
v 0 5 -1.5
v 1 5 -1.5

# faces
f 3/3/1 2/3/1 1/3/1
f 4/3/1 2/3/1 3/3/1
f 7/3/1 6/3/1 5/3/1
f 8/3/1 6/3/1 7/3/1
f 11/2/1 10/2/1 9/2/1
f 12/2/1 10/2/1 11/2/1
f 15/3/1 14/3/1 13/3/1
f 16/3/1 14/3/1 15/3/1
f 20/3/1 18/3/1 17/3/1
f 21/3/1 18/3/1 20/3/1
f 23/2/1 20/2/1 19/2/1
f 24/2/1 20/2/1 23/2/1
f 25/2/1 22/2/1 21/2/1
f 26/2/1 22/2/1 25/2/1
f 29/3/1 28/3/1 27/3/1
f 30/3/1 28/3/1 29/3/1
f 31/3/2 32/3/2 33/3/2
f 33/3/2 32/3/2 34/3/2
f 35/3/2 36/3/2 37/3/2
f 37/3/2 36/3/2 38/3/2
f 38/3/2 36/3/2 40/3/2
f 40/3/2 36/3/2 41/3/2
f 39/2/2 40/2/2 43/2/2
f 43/2/2 40/2/2 44/2/2
f 41/2/2 42/2/2 45/2/2
f 45/2/2 42/2/2 46/2/2
f 47/3/2 48/3/2 49/3/2
f 49/3/2 48/3/2 50/3/2
f 51/2/2 52/2/2 53/2/2
f 53/2/2 52/2/2 54/2/2
f 59/2/3 56/2/3 55/2/3
f 60/2/3 56/2/3 59/2/3
f 61/3/3 58/3/3 57/3/3
f 62/3/3 58/3/3 61/3/3
f 66/3/3 64/3/3 63/3/3
f 67/3/3 64/3/3 66/3/3
f 71/3/3 66/3/3 65/3/3
f 72/3/3 66/3/3 71/3/3
f 73/2/3 69/2/3 68/2/3
f 74/2/3 69/2/3 73/2/3
f 75/3/3 72/3/3 71/3/3
f 75/3/3 71/3/3 70/3/3
f 75/3/3 73/3/3 72/3/3
f 76/3/3 73/3/3 75/3/3
f 77/3/3 73/3/3 76/3/3
f 78/3/3 73/3/3 77/3/3
f 80/2/3 79/2/3 78/2/3
f 81/2/3 79/2/3 80/2/3
f 82/3/4 83/3/4 84/3/4
f 84/3/4 83/3/4 85/3/4
f 86/3/4 87/3/4 89/3/4
f 89/3/4 87/3/4 90/3/4
f 88/3/4 89/3/4 94/3/4
f 94/3/4 89/3/4 95/3/4
f 91/2/4 92/2/4 96/2/4
f 96/2/4 92/2/4 97/2/4
f 94/3/4 95/3/4 98/3/4
f 93/3/4 94/3/4 98/3/4
f 95/3/4 96/3/4 98/3/4
f 98/3/4 96/3/4 99/3/4
f 99/2/4 100/2/4 101/2/4
f 101/2/4 100/2/4 102/2/4
f 103/2/4 104/2/4 105/2/4
f 105/2/4 104/2/4 106/2/4
f 109/3/5 108/3/5 107/3/5
f 110/3/5 108/3/5 109/3/5
f 113/3/5 112/3/5 111/3/5
f 114/3/5 112/3/5 113/3/5
f 119/3/5 116/3/5 115/3/5
f 120/3/5 116/3/5 119/3/5
f 121/3/5 118/3/5 117/3/5
f 122/3/5 118/3/5 121/3/5
f 126/2/5 124/2/5 123/2/5
f 127/2/5 124/2/5 126/2/5
f 129/2/5 126/2/5 125/2/5
f 130/2/5 126/2/5 129/2/5
f 131/2/5 128/2/5 127/2/5
f 132/2/5 128/2/5 131/2/5
f 133/2/5 131/2/5 130/2/5
f 134/2/5 131/2/5 133/2/5
f 135/3/6 136/3/6 137/3/6
f 137/3/6 136/3/6 138/3/6
f 139/3/6 140/3/6 143/3/6
f 143/3/6 140/3/6 144/3/6
f 141/3/6 142/3/6 145/3/6
f 145/3/6 142/3/6 146/3/6
f 147/2/6 148/2/6 150/2/6
f 150/2/6 148/2/6 151/2/6
f 149/2/6 150/2/6 153/2/6
f 150/1/6 151/1/6 154/1/6
f 153/2/6 150/2/6 154/2/6
f 151/2/6 152/2/6 155/2/6
f 154/1/6 151/1/6 155/1/6
f 155/2/6 152/2/6 156/2/6
f 154/2/6 155/2/6 157/2/6
f 157/2/6 155/2/6 158/2/6
